<svg xmlns="http://www.w3.org/2000/svg" viewBox="0 0 96 96" width="18" height="18">
  <rect x="16" y="16" width="12" height="12" fill="#f778ba"/>
  <rect x="28" y="16" width="12" height="12" fill="#f778ba"/>
  <rect x="48" y="16" width="12" height="12" fill="#f778ba"/>
  <rect x="60" y="16" width="12" height="12" fill="#f778ba"/>
  <rect x="4" y="28" width="12" height="12" fill="#f778ba"/>
  <rect x="16" y="28" width="12" height="12" fill="#ff9bce"/>
  <rect x="28" y="28" width="12" height="12" fill="#f778ba"/>
  <rect x="40" y="28" width="12" height="12" fill="#f778ba"/>
  <rect x="48" y="28" width="12" height="12" fill="#f778ba"/>
  <rect x="60" y="28" width="12" height="12" fill="#f778ba"/>
  <rect x="72" y="28" width="12" height="12" fill="#f778ba"/>
  <rect x="4" y="40" width="12" height="12" fill="#f778ba"/>
  <rect x="16" y="40" width="12" height="12" fill="#f778ba"/>
  <rect x="28" y="40" width="12" height="12" fill="#f778ba"/>
  <rect x="40" y="40" width="12" height="12" fill="#f778ba"/>
  <rect x="48" y="40" width="12" height="12" fill="#f778ba"/>
  <rect x="60" y="40" width="12" height="12" fill="#f778ba"/>
  <rect x="72" y="40" width="12" height="12" fill="#f778ba"/>
  <rect x="16" y="52" width="12" height="12" fill="#f778ba"/>
  <rect x="28" y="52" width="12" height="12" fill="#f778ba"/>
  <rect x="40" y="52" width="12" height="12" fill="#f778ba"/>
  <rect x="48" y="52" width="12" height="12" fill="#f778ba"/>
  <rect x="60" y="52" width="12" height="12" fill="#f778ba"/>
  <rect x="28" y="64" width="12" height="12" fill="#f778ba"/>
  <rect x="40" y="64" width="12" height="12" fill="#f778ba"/>
  <rect x="48" y="64" width="12" height="12" fill="#f778ba"/>
  <rect x="40" y="76" width="12" height="12" fill="#f778ba"/>
</svg>
