<svg xmlns="http://www.w3.org/2000/svg" viewBox="0 0 128 128" width="80" height="80">
  <rect width="128" height="128" rx="14" fill="#0d1117"/>
  <!-- < -->
  <rect x="28" y="32" width="8" height="8" fill="#58a6ff"/>
  <rect x="20" y="40" width="8" height="8" fill="#58a6ff"/>
  <rect x="12" y="48" width="8" height="8" fill="#58a6ff"/>
  <rect x="20" y="56" width="8" height="8" fill="#58a6ff"/>
  <rect x="28" y="64" width="8" height="8" fill="#58a6ff"/>
  <!-- / -->
  <rect x="52" y="32" width="8" height="8" fill="#7ee787"/>
  <rect x="48" y="40" width="8" height="8" fill="#7ee787"/>
  <rect x="44" y="48" width="8" height="8" fill="#7ee787"/>
  <rect x="40" y="56" width="8" height="8" fill="#7ee787"/>
  <rect x="36" y="64" width="8" height="8" fill="#7ee787"/>
  <!-- > -->
  <rect x="64" y="32" width="8" height="8" fill="#58a6ff"/>
  <rect x="72" y="40" width="8" height="8" fill="#58a6ff"/>
  <rect x="80" y="48" width="8" height="8" fill="#58a6ff"/>
  <rect x="72" y="56" width="8" height="8" fill="#58a6ff"/>
  <rect x="64" y="64" width="8" height="8" fill="#58a6ff"/>
  <!-- cursor -->
  <rect x="96" y="48" width="8" height="8" fill="#58a6ff" opacity="0.8"/>
  <!-- dots -->
  <rect x="28" y="88" width="6" height="6" rx="3" fill="#58a6ff" opacity="0.3"/>
  <rect x="44" y="88" width="6" height="6" rx="3" fill="#7ee787" opacity="0.3"/>
  <rect x="60" y="88" width="6" height="6" rx="3" fill="#58a6ff" opacity="0.3"/>
</svg>
