<svg xmlns="http://www.w3.org/2000/svg" viewBox="0 0 120 120" width="80" height="80">
  <rect width="120" height="120" rx="12" fill="#0d1117"/>
  <!-- < -->
  <rect x="12" y="24" width="8" height="8" fill="#58a6ff"/>
  <rect x="4" y="32" width="8" height="8" fill="#58a6ff"/>
  <rect x="12" y="40" width="8" height="8" fill="#58a6ff"/>
  <!-- / -->
  <rect x="32" y="24" width="8" height="8" fill="#7ee787"/>
  <rect x="28" y="32" width="8" height="8" fill="#7ee787"/>
  <rect x="24" y="40" width="8" height="8" fill="#7ee787"/>
  <!-- > -->
  <rect x="44" y="24" width="8" height="8" fill="#58a6ff"/>
  <rect x="52" y="32" width="8" height="8" fill="#58a6ff"/>
  <rect x="44" y="40" width="8" height="8" fill="#58a6ff"/>
  <!-- wind wave lines -->
  <rect x="72" y="24" width="24" height="4" rx="2" fill="#58a6ff" opacity="0.7"/>
  <rect x="80" y="32" width="28" height="4" rx="2" fill="#58a6ff" opacity="0.5"/>
  <rect x="68" y="40" width="32" height="4" rx="2" fill="#58a6ff" opacity="0.3"/>
  <!-- underline bar -->
  <rect x="4" y="64" width="112" height="3" rx="1.5" fill="#58a6ff" opacity="0.1"/>
  <rect x="4" y="64" width="56" height="3" rx="1.5" fill="#7ee787" opacity="0.5"/>
  <!-- dots -->
  <rect x="4" y="80" width="5" height="5" rx="2.5" fill="#7ee787" opacity="0.4"/>
  <rect x="16" y="80" width="5" height="5" rx="2.5" fill="#58a6ff" opacity="0.4"/>
  <rect x="28" y="80" width="5" height="5" rx="2.5" fill="#7ee787" opacity="0.4"/>
</svg>
